{"title":"President.Barack.Obamas.Inagural.Address.2009.DVDRip.XViD-SPRiNT","uid":5585013,"size":382058629,"categoryP":"video","categoryS":"movies","magnet":"?xt=urn:btih:12eb0d90cf99d28c2edafbd88cdd6d1a6284e177&amp;dn=President.Barack.Obamas.Inagural.Address.2009.DVDRip.XViD-SPRiNT&amp;tr=udp%3A%2F%2Ftracker.openbittorrent.com%3A80&amp;tr=udp%3A%2F%2Fopen.demonii.com%3A1337&amp;tr=udp%3A%2F%2Ftracker.coppersurfer.tk%3A6969&amp;tr=udp%3A%2F%2Fexodus.desync.com%3A6969","seeders":0,"leechers":0,"uploader":"TvTeam","files":6,"time":1274673380,"description":". \n \n &lt;a href=&quot;\nhttp://www.torrentday.com&quot; rel=&quot;nofollow&quot; target=&quot;_NEW&quot;&gt;\nhttp://www.torrentday.com&lt;/a&gt; :  Your Key To The Scene.\n\n\nNow TvTeam with [No-RAR] Releases.\n\n\n\n(((((((((((((= Enjoy No RAR releases =))))))))))))))))))))\n\n\n\n...................................NFO:....................................\n\n.\n                                                     \n                                                   \n                                                         \n                                                          \n                                                           \n                                                          \n                                                          \n                                                          \n                                                           \n                                                         \n                                                          \n                                                        \n                                                      \n                                     \n                                                 \n                                                   \n                                             \n                                              \n                                                     \n                                                      \n                                                      \n                                                      \n                                                    \n                                                     \n                                                   \n                                                     \n                                                     \n                                                      \n                                                     \n                                                      \n                                                    \n                 ARTiCHOKE                        \n                                                \n                      \n                                                        \n                                                      \n                                                      \n                                               \n                                          \n                                                   \n                                            \n                                                    \n                                                       \n                                                        \n                                                      \n                                                \n                                                        \n                                                 \n                                              \n                                                  \n                                                \n                                                  \n                                        \n\n      \n                                \n      SPRiNTER proudly presents...     \n                                \n      \n \nPresident.Barack.Obamas.Inagural.Address.2009.DVDRip.XViD-SPRiNTER &lt;a href=&quot;\nhttp://www.amazon.com/Official-Inaugural-Celebration-Barack-Obama/dp/B0035JHYK2&quot; rel=&quot;nofollow&quot; target=&quot;_NEW&quot;&gt;\nhttp://www.amazon.com/Official-Inaugural-Celebration-Barack-Obama/dp/B0035JHYK2&lt;/a&gt;\n\n Date: 2010.05\n\n Genre: Documentary\n Plot: \n\n Cast: Barrack Obama :: Himself..\n\n\n      \n                 \n      Release notes     \n                 \n      \n\n\t   Enjoy!\n\n\n      \n           \n     Greetings    \n           \n      \n\n\nNTX aAF FiCO HNR CiNEFiLE AEN HUMANiSM\n\n\n      \n           \n      Details     \n           \n      \n\nFormat                           : AVI\nFormat/Info                      : Audio Video Interleave\nFile size                        : 349 MiB\nDuration                         : 19mn 26s\nOverall bit rate                 : 2 511 Kbps\nWriting application              : VirtualDubMod 1.5.10.2 (build 2540/release)\nWriting library                  : VirtualDubMod build 2540/release\n\nVideo\nID                               : 0\nFormat                           : MPEG-4 Visual\nFormat profile                   : AdvancedSimple@L5\nFormat settings, BVOP            : Yes\nFormat settings, QPel            : No\nFormat settings, GMC             : No warppoints\nFormat settings, Matrix          : Default (H.263)\nCodec ID                         : XVID\nCodec ID/Hint                    : XviD\nDuration                         : 19mn 26s\nBit rate                         : 2 313 Kbps\nWidth                            : 576 pixels\nHeight                           : 320 pixels\nDisplay aspect ratio             : 16:9\nFrame rate                       : 29.970 fps\nResolution                       : 24 bits\nColorimetry                      : 4:2:0\nScan type                        : Progressive\nBits/(Pixel*Frame)               : 0.419\nStream size                      : 322 MiB (92%)\nWriting library                  : XviD 1.2.1 (UTC 2008-12-04)\n\nAudio\nID                               : 1\nFormat                           : AC-3\nFormat/Info                      : Audio Coding 3\nFormat profile                   : Dolby Digital\nCodec ID                         : 2000\nDuration                         : 19mn 26s\nBit rate mode                    : Constant\nBit rate                         : 192 Kbps\nChannel(s)                       : 2 channels\nChannel positions                : L R\nSampling rate                    : 48.0 KHz\nVideo delay                      : 3ms\nStream size                      : 26.7 MiB (8%)\nAlignment                        : Split accross interleaves\nInterleave, duration             : 10903 ms (326.77 video frames)","torrent":{"xt":"urn:btih:12eb0d90cf99d28c2edafbd88cdd6d1a6284e177","amp;dn":"President.Barack.Obamas.Inagural.Address.2009.DVDRip.XViD-SPRiNT","amp;tr":["udp%3A%2F%2Ftracker.openbittorrent.com%3A80","udp%3A%2F%2Fopen.demonii.com%3A1337","udp%3A%2F%2Ftracker.coppersurfer.tk%3A6969","udp%3A%2F%2Fexodus.desync.com%3A6969"],"infoHash":"12eb0d90cf99d28c2edafbd88cdd6d1a6284e177","infoHashBuffer":{"type":"Buffer","data":[18,235,13,144,207,153,210,140,46,218,251,216,140,221,109,26,98,132,225,119]},"announce":[],"urlList":[]}}